<?xml version="1.0" encoding="utf-8"?>
<!-- Generator: Adobe Illustrator 21.0.2, SVG Export Plug-In . SVG Version: 6.00 Build 0)  -->
<svg version="1.1" id="Layer_1" xmlns="http://www.w3.org/2000/svg" xmlns:xlink="http://www.w3.org/1999/xlink" x="0px" y="0px"
	 viewBox="0 0 1920 1835.7" style="enable-background:new 0 0 1920 1835.7;" xml:space="preserve">
<style type="text/css">
	.st0{fill:#FBFBFB;}
	.st1{fill:#E83C6A;}
	.st2{fill:#C11636;}
	.st3{fill:#6B1224;}
	.st4{fill:url(#SVGID_1_);}
	.st5{fill:url(#SVGID_2_);}
	.st6{fill:url(#SVGID_3_);}
	.st7{fill:url(#SVGID_4_);}
	.st8{fill:url(#SVGID_5_);}
	.st9{fill:#FFFFFF;}
	.st10{fill:url(#SVGID_6_);}
	.st11{fill:url(#SVGID_7_);}
	.st12{fill:url(#SVGID_8_);}
	.st13{fill:url(#SVGID_9_);}
	.st14{fill:#41210A;stroke:#41210A;stroke-width:9.380000e-02;}
	.st15{fill:#8D613C;stroke:#8D613C;stroke-width:9.380000e-02;}
	.st16{fill:#E6E6E6;stroke:#E6E6E6;stroke-width:9.380000e-02;}
	.st17{opacity:0.6;fill:url(#SVGID_10_);enable-background:new    ;}
	.st18{fill:url(#SVGID_11_);}
	.st19{fill:url(#_Path_4_1_);}
	.st20{fill:url(#SVGID_12_);}
	.st21{fill:url(#_Path_5_1_);}
	.st22{fill:url(#_Path_6_1_);}
	.st23{opacity:0.5;fill:url(#SVGID_13_);enable-background:new    ;}
	.st24{fill:#EF0729;}
	.st25{fill:url(#_Path_7_1_);}
	.st26{fill:url(#_Rectangle__1_);}
	.st27{fill:url(#_Path_9_1_);}
	.st28{fill:url(#SVGID_14_);}
	.st29{fill:url(#SVGID_15_);}
	.st30{fill:#23272B;}
	.st31{fill:#CC9966;}
	.st32{fill:#8D613C;}
	.st33{fill:none;stroke:#8D613C;stroke-width:9.380000e-02;}
</style>
<g id="Layer_2">
	<g>
		<g>
			<path class="st0" d="M437.9,1387.7c0.2,1.6,0,3.3,0,4.9c0,1.6,0,3.2,0.1,4.8c0.1,1.2,0.1,2.3,0.2,3.5l-3.9,0.3
				c-0.9-9.9,0.3-12.4-1.1-16C435,1385.8,436.5,1386.7,437.9,1387.7z"/>
			<path class="st0" d="M407.2,1375.8c3.5-1.5,7.5-2.1,11.6-1.9c7.2,0.3,14.8,3.1,17.9,9.4c-1.9-1-4-1.9-6.3-2.5
				c-3.1-2.7-7.5-3.8-11.6-4c-3.2-0.1-6.3,0.3-9.1,1.4c-10,3.9-12.9,14.8-13.4,25.7l-3.9,0.3C393.1,1386.3,399.7,1379,407.2,1375.8z
				"/>
			<path class="st1" d="M339.9,1408.1c0,0,19.3,3.4,19.4,3.4l-0.7,129.9l0,0l-25.1,15.9L339.9,1408.1L339.9,1408.1z"/>
			<path class="st1" d="M371.6,1416l5.1,153.3l124.4-22.9l-6-140.4C495.1,1406.1,371.6,1416,371.6,1416z"/>
			<polygon class="st2" points="358.6,1541.4 376.7,1569.4 376.6,1569.4 333.5,1557.3 358.6,1541.4 			"/>
			<polygon class="st3" points="371.6,1416 376.7,1569.4 358.6,1541.4 358.6,1541.4 359.3,1411.5 			"/>
			<path class="st3" d="M371.6,1416l-12.3-4.5c0,0-19.3-3.4-19.4-3.4l126.4-9.4l0,0l8.1,3.6l20.7,3.7L371.6,1416z"/>
			<path class="st3" d="M450.9,1409.4l-4.4,0.4c1.1,1.2,2.3,3,3.4,5.1c1.1,2,2.8,3.2,5.2,6.2c-0.1,0.3-0.5,0.5-0.7,0.8
				c-0.5,1.1,0.7,2.2,2.2,1.7c1.4-0.4,2.2-1.4,2.2-3.3v0c0,0,0-0.1,0-0.1c-4.3-5.6-4.4-5-7.3-9.9c0,0,0,0,0,0
				C451.3,1409.9,451.1,1409.7,450.9,1409.4z"/>
			<path class="st3" d="M408.5,1426.3c-0.8-1.7-1.7-3.4-2.7-5.1c-1.6-2.7-3.1-5.1-5-7.6l4.3-0.3c0.8,1.1,1.6,2.3,2.3,3.5
				c1.1,1.6,2,3.3,3,5c0.7,1.2,1.3,2.5,1.9,3.8c0,0.1,0.1,0.1,0.1,0.2C411.1,1425.9,409.8,1426,408.5,1426.3z"/>
			<path class="st0" d="M447,1391.7c4.4,5.1,8.3,11.2,10.8,17.7l0,0c0.1,0.4,0.3,0.7,0.4,1.1c0,0,0,0,0,0c0.2,1.2,2.2,6.6,1.3,10.8
				c0,0.1,0,0.1,0,0.1c-0.1,0.3-0.2,0.5-0.3,0.8c0,0,0,0,0,0c-0.8,1.7-2.9,2-4,1.3c-0.8-0.5-1-1.4-0.4-2c0.2-0.3,0.6-0.3,0.8-0.5
				c0.8-1.8-0.3-7.9-1.7-11.5c-0.1-0.6-2.4-5.9-6.1-11.2c-3.9-5.6-8.2-10.4-14.4-13.2c-1-0.4-2-0.8-3-1.1
				c-7.1-2.2-20.2-1.8-22.2,5.2c-0.9,3.1,1,6.3,2,9.3c0.5,1.4,0.9,2.9,1.3,4.3c0.5,1.9,1,3.8,1.3,5.7c0.3,1.4,0.5,2.8,0.7,4.2
				c0.2,1.7,0.3,3.3,0.4,5l0,0c0,0.2,0,0.4,0,0.6c0,1,0,2,0.1,3c0,1,0,2-0.2,3c-0.1,0.4-0.2,0.7-0.3,1.1c0,0,0,0,0,0l0,0
				c-0.2,0.5-0.5,1.1-0.8,1.5v0c-0.5,0.6-1.3,1.1-2.4,1.2c-0.1,0-0.3,0-0.4,0c-1,0-1.9-0.7-1.9-1.6c0-0.5,0.3-0.9,0.8-1.1
				c0.5-0.2,0.7-0.1,0.9-0.6c0.5-0.9,0.5-2.1,0.5-3.1c0-1.2-0.1-2.4-0.1-3.6c0-1.7-0.1-3.4-0.4-5.2c-0.4-3.3-1.1-6.6-2-9.8
				c-0.5-2-1.1-3.9-1.8-5.9c-0.5-1.5-1.2-3-1.5-4.6c-0.3-1.8-0.2-3.6,0.5-5.3C408.7,1378.6,431.9,1374.3,447,1391.7z"/>
		</g>
	</g>
</g>
<linearGradient id="SVGID_1_" gradientUnits="userSpaceOnUse" x1="868.2401" y1="607.2899" x2="880.8957" y2="589.0312" gradientTransform="matrix(1 0 0 -1 0 1534)">
	<stop  offset="0" style="stop-color:#E2B8A6"/>
	<stop  offset="0.52" style="stop-color:#F5CEBA"/>
	<stop  offset="1" style="stop-color:#FFDECF"/>
</linearGradient>
<path class="st4" d="M885.7,940.8l-3.4-27.1l-24.5,2.8l2,16.1l-5.1-1.7c-2.2,6.4,0.6,13.3,6.7,16.1v0.6h0.6
	c11.5,6.1,31.8,2.2,33.5-3.6L885.7,940.8z"/>
<linearGradient id="SVGID_2_" gradientUnits="userSpaceOnUse" x1="804.5597" y1="544.9103" x2="752.6804" y2="417.1654" gradientTransform="matrix(1 0 0 -1 0 1534)">
	<stop  offset="0" style="stop-color:#E2B8A6"/>
	<stop  offset="0.52" style="stop-color:#F5CEBA"/>
	<stop  offset="1" style="stop-color:#FFDECF"/>
</linearGradient>
<path class="st5" d="M744.6,1117.5c-8.7,0-15.9-7.2-15.6-15.9c0-4.3,1.8-8.3,4.7-11.2l42-40.5l11.9-91.9c0.7-8.7,8.7-15.2,17.4-14.1
	c8.7,0.7,15.2,8.7,14.1,17.4c0,0.4,0,0.7,0,1.1l-12.7,97.3c-0.4,3.6-2.2,6.9-4.7,9.4l-45.9,44.1
	C752.6,1115.7,748.6,1117.1,744.6,1117.5z"/>
<linearGradient id="SVGID_3_" gradientUnits="userSpaceOnUse" x1="826.04" y1="582.8223" x2="780.5638" y2="550.5875" gradientTransform="matrix(1 0 0 -1 0 1534)">
	<stop  offset="0" style="stop-color:#3232AD"/>
	<stop  offset="0.23" style="stop-color:#3E3EBD"/>
	<stop  offset="0.52" style="stop-color:#4949CC"/>
	<stop  offset="0.73" style="stop-color:#4F4FD2"/>
	<stop  offset="1" style="stop-color:#6060E2"/>
</linearGradient>
<path class="st6" d="M817.7,991.2c-11.2,5.4-24.6,2.9-33.3-5.8c-1.4-1.4-2.2-3.6-1.8-5.8l5.4-28.2c1.8-10.9,11.9-18.5,22.8-17
	c10.9,1.8,18.1,11.9,16.6,22.4v0.4l-5.4,28.9C821.3,988.3,819.9,990.1,817.7,991.2z"/>
<linearGradient id="SVGID_4_" gradientUnits="userSpaceOnUse" x1="813.7282" y1="435.6772" x2="935.2504" y2="572.8733" gradientTransform="matrix(1 0 0 -1 0 1534)">
	<stop  offset="0" style="stop-color:#4E4EC6"/>
	<stop  offset="0.23" style="stop-color:#5B5BD6"/>
	<stop  offset="0.52" style="stop-color:#6767E5"/>
	<stop  offset="0.73" style="stop-color:#6D6DE8"/>
	<stop  offset="1" style="stop-color:#7D7DEF"/>
</linearGradient>
<path class="st7" d="M839,933.7c-9.4-0.7-19.2-0.4-28.6,0.7c-11.9,1.4-2.9,96.2-1.4,124.8c1.1,20.3,1.9,66.9,2.6,78.1
	c0.4,4.3,3.3,8,7.6,9c21,4.7,82.4,4.7,99.1,2.6l5.4-175.1l9.4-6.9c-7.2-9-17-15.9-27.9-19.9C887.5,941.3,839,933.7,839,933.7z"/>
<linearGradient id="SVGID_5_" gradientUnits="userSpaceOnUse" x1="821.3965" y1="634.6688" x2="890.569" y2="657.1716" gradientTransform="matrix(1 0 0 -1 0 1534)">
	<stop  offset="0" style="stop-color:#E2B8A6"/>
	<stop  offset="0.52" style="stop-color:#F5CEBA"/>
	<stop  offset="1" style="stop-color:#FFDECF"/>
</linearGradient>
<path class="st8" d="M814.8,853.8c-4,19.5-1.8,39.8,6.5,57.5c14.1,28.2,28.6,24.2,35.8,25c7.2,0.7,30.8-15.6,33.3-32.6
	s10.9-36.9,6.5-44.1C892.6,852.3,852.1,832.8,814.8,853.8z"/>
<path class="st9" d="M863.3,905.1c0,0-21,4.3-33.6,0.7c0,0,5.8,17.4,18.5,16.3C861.1,920.7,863.3,905.1,863.3,905.1z"/>
<linearGradient id="SVGID_6_" gradientUnits="userSpaceOnUse" x1="839.0413" y1="586.1128" x2="905.3198" y2="586.1128" gradientTransform="matrix(1 0 0 -1 0 1534)">
	<stop  offset="0" style="stop-color:#3232AD"/>
	<stop  offset="0.23" style="stop-color:#3E3EBD"/>
	<stop  offset="0.52" style="stop-color:#4949CC"/>
	<stop  offset="0.73" style="stop-color:#4F4FD2"/>
	<stop  offset="1" style="stop-color:#6060E2"/>
</linearGradient>
<path class="st10" d="M849.5,936.2c0.4,1.4,0.7,2.5,1.4,4c2.5,4.7,8,8.3,15.6,10.1c17,4.3,25.3-2.2,28.9-6.2l10.1,3.3
	c-5.1,8-13.7,13.4-23.5,14.1c-6.2,0.7-11.9,0-17.7-1.4c-10.5-2.9-17.7-8-22.1-15.2c-1.8-3.3-2.9-6.9-3.3-10.9
	C843.4,934.4,846.6,935.9,849.5,936.2z"/>
<linearGradient id="SVGID_7_" gradientUnits="userSpaceOnUse" x1="858.0493" y1="398.8581" x2="968.6455" y2="522.0079" gradientTransform="matrix(1 0 0 -1 0 1534)">
	<stop  offset="0" style="stop-color:#E2B8A6"/>
	<stop  offset="0.52" style="stop-color:#F5CEBA"/>
	<stop  offset="1" style="stop-color:#FFDECF"/>
</linearGradient>
<path class="st11" d="M940.3,1089.3l-2.2-108.9c0.4-8.7-6.9-15.9-15.6-16.3c-8.7-0.4-15.9,6.9-16.3,15.6c0,0.4,0,1.1,0,1.4
	l2.2,107.1l-12.3,49.9c-2.5,2.5-4.3,5.8-5.4,9l-1.8,7.6c-2.5,10.1,3.3,20.3,13.4,23.2c10.1,2.9,20.3-3.3,23.2-13.4
	c0-0.4,0-0.4,0.4-0.7l1.8-7.6c0.7-3.6,0.7-7.2-0.4-10.5L940,1094C940.3,1092.2,940.3,1090.7,940.3,1089.3z"/>
<linearGradient id="SVGID_8_" gradientUnits="userSpaceOnUse" x1="902.8129" y1="515.9572" x2="940.9085" y2="564.5443" gradientTransform="matrix(1 0 0 -1 0 1534)">
	<stop  offset="0" style="stop-color:#3232AD"/>
	<stop  offset="0.23" style="stop-color:#3E3EBD"/>
	<stop  offset="0.52" style="stop-color:#4949CC"/>
	<stop  offset="0.73" style="stop-color:#4F4FD2"/>
	<stop  offset="1" style="stop-color:#6060E2"/>
</linearGradient>
<path class="st12" d="M940,1018.4c-9.4,8-22.8,9.4-33.6,3.3c-1.8-1.1-2.9-2.9-3.3-5.1l-3.3-33.3c-1.1-10.9,6.5-20.6,17.4-22.4
	c10.9-1.4,20.6,6.5,22.1,17.4v0.4l3.3,33.6C942.5,1014.7,941.4,1016.9,940,1018.4z"/>
<linearGradient id="SVGID_9_" gradientUnits="userSpaceOnUse" x1="795.7386" y1="659.6716" x2="897.5076" y2="687.1669" gradientTransform="matrix(1 0 0 -1 0 1534)">
	<stop  offset="0" style="stop-color:#DD784B"/>
	<stop  offset="0.52" style="stop-color:#F58E5B"/>
	<stop  offset="1" style="stop-color:#FFAF78"/>
</linearGradient>
<path class="st13" d="M896.9,835.7c-10.5-8.3-18.5-2.9-18.5-2.9S865,818,848.7,817.6s-29.7,5.8-24.2,11.6c1.1,1.1,2.2,2.2,3.3,3.3
	c0,0-15.2-2.2-24.2,5.4c-5.4,4-6.5,11.6-2.5,17c1.1,1.4,2.2,2.5,3.6,3.3c-4,1.1-7.2,4-8,8c-2.5,13.7,21,15.9,34.4,11.9
	s39.1-19.5,39.1-19.5c0,7.6,0.7,15.2,2.9,22.8l1.1,4.7l4-1.4v-1.1c-0.4-0.7-0.7-1.8-0.7-2.5c-0.7-4,2.2-8,6.5-8.3s8,2.2,8.3,6.5v0.4
	c0.4,2.9-1.1,6.2-3.6,7.6c1.1,5.8,5.1,5.4,5.1,5.4l0,0c1.4-0.7,2.5-2.2,2.9-3.6C898,880.2,904.2,841.5,896.9,835.7z M805,858.1
	l1.1,0.4L805,858.1z"/>
<g id="_x23_fefefeff">
</g>
<path class="st14" d="M517.1,249.7c3.5-8.1,10.5-14.8,19.1-16.9c-0.1,2.2-0.8,4.4-2.4,6C529.4,243.8,523.5,247.6,517.1,249.7z"/>
<path class="st14" d="M564.1,249.9c3.2-7.9,10.1-15,18.6-16.7c0.9,1.9-0.5,3.6-1.5,5.1C576.8,243.6,570.6,247.3,564.1,249.9z"/>
<path class="st14" d="M378.4,248.4c3.9-3.3,8.4-5.7,12.8-8.1c-2,4.4-4.6,8.7-5.1,13.6c-0.3,2.6,0.6,5.1,1.3,7.5
	c-3.2,3.3-7.6,6.1-12.4,4.8c-2.5-0.4-3.5-3-3.3-5.3C372.1,256.1,374.7,251.5,378.4,248.4z"/>
<path class="st14" d="M807.4,249.4c4.1-3.9,9.2-6.5,14.1-9.1c-1.9,4.1-4.3,8.2-5.2,12.7c-0.5,2.9,0.4,5.7,1.2,8.5
	c-2.7,2.4-5.7,5-9.5,5c-2.4,0.1-5.6-0.7-6-3.5C801.3,258,804,253,807.4,249.4z"/>
<path class="st14" d="M863.6,260.2c5.8-8,13.3-15,22.8-18.1c0.2,1.9,0.6,4.1-0.6,5.8c-3.3,4.9-7.6,9.2-11.3,13.8
	C871,260.9,867.3,260.4,863.6,260.2z"/>
<path class="st14" d="M415.8,286.1c0.5-5.5,3.2-10.3,6-15c3.2,0.5,6.5,0.8,9.8,1c0.5,10-4.9,19.8-13.3,25.2
	C416.8,293.7,415.3,290,415.8,286.1z"/>
<path class="st14" d="M469.1,271.2c3.4,0.4,6.7,0.6,10.1,0.8c0.4,10.1-4.9,19.7-13.2,25.3c-1.3-3.3-2.8-6.7-2.6-10.3
	C463.7,281.3,466.6,276.2,469.1,271.2z"/>
<path class="st14" d="M594.5,607.9c0.8,23.8,11,47.1,27.9,63.8c13.8,13.9,32.2,23,51.6,25.5c14.7,1.8,29.9,0.1,43.7-5.4
	c18.4-7.2,34.2-20.7,44.5-37.6c8.5-13.6,13.3-29.4,14.3-45.4c1.5,20,8.6,39.8,21.5,55.4c17.1,21.5,44.5,34.6,72,33.6
	c20.5-0.4,40.6-8.4,56-21.9c19.7-16.9,31.8-42.2,32.6-68.1c1.6,21.2,9.2,42.2,23.3,58.3c10.9,12.8,25.3,22.5,41.3,27.6
	c19,6.1,40.1,5.4,58.7-1.8c18-7,33.5-19.9,43.9-36.2c9.1-14,14.1-30.3,15.3-46.9c1.5,23.2,11.1,45.9,27.7,62.3
	c10.4,10.8,23.7,18.6,38,23c19.1,5.7,40.1,4.8,58.5-2.7c17.6-7.2,32.8-20,43-36.1c8.7-13.5,13.4-29.3,15-45.2
	c1.8,21,10,41.6,24.2,57.3c12.2,13.9,28.8,24,46.9,28.1c18.8,4.5,39,2.5,56.5-5.5c13.2-5.9,24.7-15.1,33.7-26.4
	c12.6-15.7,19.9-35.5,20.9-55.6c0.8,9.7,2.4,19.4,5.8,28.6c9.7,27,32.1,49.3,59.7,57.5c21.4,6.6,45.4,4.6,65.4-5.6
	c30-14.9,50.3-47,51.2-80.4c1.4,16.6,6,33.1,15.2,47.2c10.2,16.3,25.6,29.2,43.4,36.4c0,201.2,0,402.4,0,603.5
	c-70.1,0-140.3,0-210.4,0c0-171,0-342,0-513c-101.3,0-202.5,0-303.8,0c0,171,0,342,0,513c-359.6,0-719.3,0-1078.9,0
	c-0.1-199.5,0-399,0-598.5c21.8-3.5,41.9-15.7,55.6-33c12.6-15.5,19.8-35.1,20.9-55c0.9,8.2,2.1,16.3,4.6,24.2
	c9.1,29.9,34.2,54.6,64.7,62.3c19.2,4.9,40.1,3.3,58.1-5c16-7.1,29.7-19.1,39.3-33.7c9.3-13.8,14.2-30.1,15.7-46.6
	c1,8.2,2.2,16.5,4.9,24.3c9,27.7,31.5,50.8,59.4,59.6c18.5,5.9,39,5.4,57.3-1.3c19-7,35.4-20.6,46-37.7
	C588.6,640.7,593.1,624.3,594.5,607.9 M287.1,795.5c-0.4,47.8-0.1,95.7-0.1,143.5c-0.1,71.5,0.1,142.9-0.1,214.3
	c67-0.1,134.1,0,201.1,0c207.5,0.1,415-0.1,622.5,0.1c0.2-15.4,0-30.9,0.1-46.4c0-103.8,0.1-207.6,0-311.5
	C836.1,795.5,561.6,795.5,287.1,795.5z"/>
<path class="st14" d="M1293.7,901.8c60.2,0,120.4,0,180.6,0c0,30.5,0,61,0,91.6c-60.2,0-120.4,0-180.6,0
	C1293.7,962.9,1293.8,932.4,1293.7,901.8 M1326.3,930.3c-5.4,5.2-10.5,11.9-10.5,19.8c0.1,4.7,1.5,9.9,5.5,12.7
	c4.2,3,9.9,2.6,14.6,1.1c9.6-3.3,17.4-10.8,22.2-19.7c2.2-4.6,4-9.9,2.7-15c-0.6-2.8-3.8-3.5-6.1-4.5c1.5-0.6,3-1.2,4.5-1.8
	c-0.4-3.9-4.1-7.9-8.3-6.6C1341.6,918.3,1333.2,923.7,1326.3,930.3 M1376,932c-6,6.7-12.2,13.2-18.3,19.7c-1.6,1.5-2,3.6-2.1,5.7
	c3.8-3,7-6.6,10.7-9.7c-3.3,7.5-8.5,13.9-12.7,20.8c-1.7,3.3-3.5,7.8-0.7,11c2.4-0.1,3.4-2.5,4.5-4.3c2-3.9,3.9-7.8,5.8-11.7
	c4.3-0.1,8.6,1,12.9,1.1c6.4-0.3,11.5-4.6,16.2-8.5c0.8,3.8,2.3,8.7,6.7,9.4c7.2,0.7,13-4.5,18.2-8.7c0.8,2.8,0.8,7.8,4.9,7.5
	c5.7-4.1,8.8-11,14.8-14.7c-2,4.3-6.2,8.7-4.3,13.8c1.1,2.9,4.9,2.4,7.1,1.1c4.1-2.4,7.5-5.8,10.8-9.2c1.4-1.3,1.4-3.3,1.7-5
	c-3.9,2.3-7,6.7-11.7,7.2c-1.3-6.1,6.1-9,8.2-13.9c-0.1-2-0.8-3.9-1.3-5.8c-5.3,1.6-9.7,5.2-14,8.6c-3.5,2.8-6.2,6.6-10,9
	c1.7-5,6.9-7.4,9-12.1c0.8-2.9-3.7-2.1-5.4-1.9c-5.2,2.7-6.5,9.2-11.2,12.5c-3.9,2.8-8.5,6.6-13.7,5.3c-2.1-0.2-2.4-2.6-2.4-4.2
	c5.3-2.9,11.8-4.4,15.8-9.4c1.8-1.9,1.3-4.6,1.2-7c-8.1-2.5-16.9,2-21.1,9c-3.5,6-9.6,11.4-16.9,11.3c3.4-4.3,8.2-7.7,10.3-12.8
	c0.8-2,1.2-5-0.9-6.3c-5.9-0.7-10.3,4-15.4,6.1c2.3-4.3,5.8-7.6,9-11.2c0.7-1.1,2.1-2.2,1.7-3.6C1381,929.5,1377.7,929.7,1376,932z"
	/>
<path class="st14" d="M1332.2,942c4.5-5.8,10.3-11.2,17.8-12.8c1.5-0.5,3.1-0.3,4.4,0.7c1.7,4.8-1.6,9.5-4.1,13.3
	c-5.1,6.5-11,13.3-19.2,15.8c-2.4,0.7-5.4,1.5-7.3-0.6c-2.3-6.8,2.5-13.1,6.4-18.1C1330.8,940.8,1331.4,941.4,1332.2,942z"/>
<path class="st14" d="M1400.4,950.7c2.1-4.4,5.8-8.3,10.9-8.8C1409,946.2,1405,949.2,1400.4,950.7z"/>
<path class="st14" d="M1368.2,956.5c3.3-4.5,7.6-8.4,13.1-9.8c-1.2,4-3.9,7.5-7.2,10.1C1372.1,956.9,1370.1,956.7,1368.2,956.5z"/>
<path class="st14" d="M1481.6,1020.9c5.1-1.5,10.9-0.9,15.5,2c5.7,3.5,9.1,10.4,8.5,17.1c-0.5,6.4-4.5,12.5-10.4,15.2
	c-5.9,2.9-13.4,2.3-18.7-1.6c-5.8-4.1-8.9-11.7-7.4-18.7C1470.3,1028.4,1475.3,1022.8,1481.6,1020.9z"/>
<path class="st15" d="M1232.1,782.1c101.3,0,202.5,0,303.8,0c0,171,0,342,0,513c-101.3,0-202.5,0-303.8,0
	C1232.2,1124.1,1232.1,953.1,1232.1,782.1 M1247.4,935c0,111.5,0,223,0,334.5c91.1,0,182.2,0,273.2,0c0-153.9,0.1-307.9-0.1-461.8
	c-91,0-182.1,0-273.1,0C1247.2,850.1,1247.4,892.5,1247.4,935z"/>
<path class="st15" d="M287.1,795.5c274.5,0,549,0,823.5,0c0.1,103.8,0,207.6,0,311.5c-0.1,15.5,0.1,30.9-0.1,46.4
	c-207.5-0.2-415,0-622.5-0.1c-67,0-134.1-0.1-201.1,0c0.1-71.4,0-142.9,0.1-214.3C287,891.2,286.7,843.3,287.1,795.5 M319.3,1139.4
	c253-0.1,506,0,759-0.1c0-109.9,0-219.8,0-329.8c-253,0-506,0-759,0C319.2,919.5,319.2,1029.4,319.3,1139.4z"/>
<path class="st15" d="M1326.3,930.3c6.9-6.5,15.3-11.9,24.6-14.1c4.2-1.3,7.9,2.7,8.3,6.6c-1.5,0.6-3,1.2-4.5,1.8
	c2.3,1.1,5.5,1.7,6.1,4.5c1.3,5.1-0.4,10.4-2.7,15c-4.7,8.9-12.5,16.4-22.2,19.7c-4.7,1.5-10.4,2-14.6-1.1c-4-2.8-5.4-8.1-5.5-12.7
	C1315.8,942.2,1320.9,935.5,1326.3,930.3 M1332.2,942c-0.7-0.6-1.4-1.2-2.1-1.7c-3.9,5.1-8.7,11.3-6.4,18.1c1.9,2.1,4.9,1.3,7.3,0.6
	c8.2-2.5,14.1-9.3,19.2-15.8c2.5-3.9,5.8-8.6,4.1-13.3c-1.3-0.9-2.9-1.1-4.4-0.7C1342.5,930.7,1336.7,936.2,1332.2,942z"/>
<path class="st15" d="M1376,932c1.7-2.3,5-2.6,7.4-1.2c0.4,1.5-1,2.5-1.7,3.6c-3.2,3.5-6.7,6.9-9,11.2c5.1-2,9.6-6.8,15.4-6.1
	c2.2,1.3,1.8,4.3,0.9,6.3c-2.2,5.2-6.9,8.5-10.3,12.8c7.3,0.1,13.4-5.3,16.9-11.3c4.2-7,13-11.4,21.1-9c0.1,2.4,0.5,5-1.2,7
	c-3.9,5-10.4,6.5-15.8,9.4c0.1,1.7,0.3,4,2.4,4.2c5.2,1.3,9.8-2.5,13.7-5.3c4.7-3.2,6-9.8,11.2-12.5c1.7-0.1,6.2-1,5.4,1.9
	c-2.1,4.7-7.4,7.1-9,12.1c3.8-2.4,6.5-6.2,10-9c4.3-3.4,8.7-7,14-8.6c0.5,1.9,1.1,3.8,1.3,5.8c-2.1,4.9-9.5,7.8-8.2,13.9
	c4.7-0.5,7.8-4.9,11.7-7.2c-0.3,1.7-0.3,3.7-1.7,5c-3.3,3.4-6.7,6.8-10.8,9.2c-2.2,1.3-6,1.8-7.1-1.1c-1.9-5.1,2.3-9.5,4.3-13.8
	c-6.1,3.7-9.2,10.6-14.8,14.7c-4.1,0.2-4-4.7-4.9-7.5c-5.3,4.2-11,9.4-18.2,8.7c-4.5-0.7-6-5.6-6.7-9.4c-4.7,3.9-9.8,8.2-16.2,8.5
	c-4.3-0.2-8.6-1.2-12.9-1.1c-1.9,3.9-3.8,7.9-5.8,11.7c-1.1,1.8-2.1,4.2-4.5,4.3c-2.8-3.2-1-7.8,0.7-11c4.2-7,9.4-13.4,12.7-20.8
	c-3.7,3.1-6.9,6.7-10.7,9.7c0-2.1,0.5-4.2,2.1-5.7C1363.8,945.2,1370,938.7,1376,932 M1400.4,950.7c4.6-1.4,8.6-4.5,10.9-8.8
	C1406.2,942.3,1402.5,946.3,1400.4,950.7 M1368.2,956.5c2,0.1,3.9,0.3,5.9,0.3c3.3-2.6,6-6.1,7.2-10.1
	C1375.8,948.1,1371.5,952.1,1368.2,956.5z"/>
<path class="st16" d="M1247.4,935c0.1-42.4-0.1-84.9,0.1-127.3c91,0,182.1,0,273.1,0c0.2,153.9,0.1,307.9,0.1,461.8
	c-91.1,0-182.2,0-273.2,0C1247.3,1158,1247.4,1046.5,1247.4,935 M1293.7,901.8c0,30.5,0,61,0,91.6c60.2,0,120.4,0,180.6,0
	c0-30.5,0-61,0-91.6C1414.1,901.9,1353.9,901.9,1293.7,901.8 M1481.6,1020.9c-6.3,2-11.3,7.6-12.6,14.1c-1.5,7,1.6,14.6,7.4,18.7
	c5.3,3.9,12.8,4.4,18.7,1.6c5.9-2.7,10-8.8,10.4-15.2c0.6-6.7-2.8-13.6-8.5-17.1C1492.5,1020,1486.7,1019.3,1481.6,1020.9z"/>
<path class="st14" d="M428.3,60.1h1037.6c211.1,0,382.2,171.1,382.2,382.2v0H46.1v0C46.1,231.2,217.2,60.1,428.3,60.1z"/>
<linearGradient id="SVGID_10_" gradientUnits="userSpaceOnUse" x1="605.6902" y1="909.8442" x2="412.2428" y2="985.2566" gradientTransform="matrix(1 0 0 1 0 604)">
	<stop  offset="0" style="stop-color:#A7A9AC;stop-opacity:0"/>
	<stop  offset="0.15" style="stop-color:#A7A9AC;stop-opacity:2.000000e-02"/>
	<stop  offset="0.3" style="stop-color:#A7A9AC;stop-opacity:9.000000e-02"/>
	<stop  offset="0.46" style="stop-color:#A7A9AC;stop-opacity:0.21"/>
	<stop  offset="0.61" style="stop-color:#A7A9AC;stop-opacity:0.38"/>
	<stop  offset="0.77" style="stop-color:#A7A9AC;stop-opacity:0.59"/>
	<stop  offset="0.92" style="stop-color:#A7A9AC;stop-opacity:0.85"/>
	<stop  offset="1" style="stop-color:#A7A9AC"/>
</linearGradient>
<path class="st17" d="M601.5,1549.9c0,27-39.5,48.9-88.3,48.9c-20.8,0-19.8-21.9-35.1-28.6c-20.1-9-53.2-4.8-53.2-20.3
	c0-27,39.5-48.9,88.3-48.9c20.1,0,21.5,19.9,36.3,26.3C570.7,1536.1,601.5,1534,601.5,1549.9z"/>
<linearGradient id="SVGID_11_" gradientUnits="userSpaceOnUse" x1="6976.2754" y1="814.5275" x2="7119.1543" y2="764.5744" gradientTransform="matrix(-1 0 0 1 7536.6802 604)">
	<stop  offset="0" style="stop-color:#E0A28C"/>
	<stop  offset="0.5" style="stop-color:#EFB29A"/>
	<stop  offset="1" style="stop-color:#FCC9BB"/>
</linearGradient>
<path class="st18" d="M506.9,1483.6l4.1-48.3c1.4-17.1,3.2-34.2,3.9-51.3l1.1-51.3l-0.2-25.7l-0.5-25.7c0.6-13.6-10-25.2-23.6-25.7
	c-13.6-0.6-25.2,10-25.7,23.7c0,0.7,0,1.4,0,2.1v25.6l0.3,25.6l0.8,51.3c0,8.6,1.1,17.1,1.6,25.6l1.8,25.6l3.6,51.3
	c0.3,4.7,2.7,9,6.5,11.9l0.8,3l30.7,40.4l7-12.9C508.3,1515.5,506.9,1494.2,506.9,1483.6L506.9,1483.6z"/>
<linearGradient id="_Path_4_1_" gradientUnits="userSpaceOnUse" x1="6973.3027" y1="939.7151" x2="7060.479" y2="903.5014" gradientTransform="matrix(-1 0 0 1 7502.6802 604)">
	<stop  offset="0" style="stop-color:#1C2126"/>
	<stop  offset="0.39" style="stop-color:#303841"/>
	<stop  offset="1" style="stop-color:#45525B"/>
</linearGradient>
<path id="_Path_4" class="st19" d="M473.9,1477.5c0,0-16.9,14.4-12.6,27.9l10.1,57.4l6.8-3.4l-1.7-29.5c0,0-1.1-1.6,10.1,19.4
	c6.4,12,24.9,21.3,50.6-14.1c2.4-3.1,2.7-7.3,0.8-10.8c-2.1-3.6-6.7-5.7-16.8,2c-4,3.1-11.5,15.8-20.2-2.5
	C500.9,1523.9,490.7,1491,473.9,1477.5L473.9,1477.5z"/>
<linearGradient id="SVGID_12_" gradientUnits="userSpaceOnUse" x1="6916.0498" y1="840.0209" x2="7060.9053" y2="789.4092" gradientTransform="matrix(-1 0 0 1 7536.6802 604)">
	<stop  offset="0" style="stop-color:#E0A28C"/>
	<stop  offset="0.5" style="stop-color:#EFB29A"/>
	<stop  offset="1" style="stop-color:#FCC9BB"/>
</linearGradient>
<path class="st20" d="M578.2,1557.7l-7,12.9l-30.7-40.4l-3.6-13.5l1-0.4c-2.5-2.6-4-6-4.4-9.7l-7.6-102.6c-0.7-8.5-1-17.1-1.1-25.6
	v-25.6c0-17.1,0.3-34.2,1.1-51.3c0.6-13.9,12.3-24.7,26.2-24.1c13.1,0.5,23.5,11,24.1,24.1c0.7,17.1,0.9,34.2,0.8,51.4
	c0,8.6,0,17.1-0.4,25.7s-0.5,17.1-1.3,25.7l-2.2,25.6l-2.3,25.7l-4.4,50.9C565.8,1510.7,564.5,1540.7,578.2,1557.7L578.2,1557.7z"/>
<linearGradient id="_Path_5_1_" gradientUnits="userSpaceOnUse" x1="6913.98" y1="968.9037" x2="7014.4575" y2="926.2815" gradientTransform="matrix(-1 0 0 1 7502.6802 604)">
	<stop  offset="0" style="stop-color:#1C2126"/>
	<stop  offset="0.39" style="stop-color:#303841"/>
	<stop  offset="1" style="stop-color:#45525B"/>
</linearGradient>
<path id="_Path_5" class="st21" d="M533.6,1506.4c0,0-16.9,14.4-12.6,27.8l10.1,57.4l6.8-3.4l-1.7-29.5c0,0-1.1-1.6,10.1,19.4
	c6.4,12,24.9,21.3,50.6-14.1c2.4-3.1,2.7-7.3,0.8-10.8c-2.1-3.6-6.7-5.7-16.8,2c-4,3.1-11.5,15.8-20.2-2.5
	C560.6,1552.8,550.5,1519.9,533.6,1506.4z"/>
<linearGradient id="_Path_6_1_" gradientUnits="userSpaceOnUse" x1="6919.3433" y1="638.7571" x2="7095.583" y2="687.7883" gradientTransform="matrix(-1 0 0 1 7502.6802 604)">
	<stop  offset="0" style="stop-color:#333380"/>
	<stop  offset="0.52" style="stop-color:#4848B3"/>
	<stop  offset="1" style="stop-color:#7070CC"/>
</linearGradient>
<path id="_Path_6" class="st22" d="M584.4,1287.5c3.2-23.2,10.1-80.4-8.3-100c-26.5-1-52.3-8.8-75-22.6c-4.7-2.9-9.2-6-13.6-9.1
	l-19.8-14.2c-2.1-0.8-4.5,0-5.6,1.9c-14.2,24.3-16.9,53.7-7.4,80.2c6.5,19.6,9.6,28.4,6.6,81.7c-0.1,10.4,0.5,20.8,1.8,31.1
	c0.4,2.1,1.5,4.1,3,5.6c6.2,6.2,26.3,20.1,53,29.8c30.7,8.3,67.6,27.1,64.3-26.3C583.2,1340.7,584.3,1292.3,584.4,1287.5z"/>
<linearGradient id="SVGID_13_" gradientUnits="userSpaceOnUse" x1="-18972.4688" y1="-6568.7393" x2="-18831.6074" y2="-6529.5845" gradientTransform="matrix(-1 0 0 1 7502.6802 604)">
	<stop  offset="0" style="stop-color:#333380"/>
	<stop  offset="0.52" style="stop-color:#4848B3"/>
	<stop  offset="1" style="stop-color:#7070CC"/>
</linearGradient>
<path class="st23" d="M488.9,1351.4c-1.6-1.6-2.7-3.6-3.2-5.8c-1.3-10.8-2-21.7-1.8-32.6c3.2-55.9,0-65.2-6.9-85.7
	c-8.9-24.9-7.6-52.3,3.5-76.3l-12.6-9.1c-2.1-0.8-4.5,0-5.6,1.9c-14.2,24.3-16.9,53.7-7.4,80.2c6.5,19.6,9.6,28.4,6.6,81.7
	c-0.1,10.4,0.5,20.8,1.8,31.1c0.4,2.1,1.5,4.1,3,5.6c6.2,6.2,26.3,20.1,53,29.8l2.5,0.7C509.8,1367.1,498.8,1359.9,488.9,1351.4z"/>
<rect x="657.5" y="1177" transform="matrix(0.8406 -0.5417 0.5417 0.8406 -536.6466 560.1244)" class="st24" width="51.5" height="29.5"/>
<linearGradient id="_Path_7_1_" gradientUnits="userSpaceOnUse" x1="6967.647" y1="377.733" x2="7010.752" y2="404.6849" gradientTransform="matrix(-1 0 0 1 7502.6802 604)">
	<stop  offset="0" style="stop-color:#E0A28C"/>
	<stop  offset="0.5" style="stop-color:#EFB29A"/>
	<stop  offset="1" style="stop-color:#FCC9BB"/>
</linearGradient>
<path id="_Path_7" class="st25" d="M513.2,1022.5l-14-2.9c-5.4-1.1-8.8-7.9-7.2-15.2l4.7-24.6c1.4-7.4,7-12.5,12.5-11.5l33.3,6.6
	l-4.9,25.2C534.6,1014.6,523.9,1024.7,513.2,1022.5L513.2,1022.5z"/>
<linearGradient id="_Rectangle__1_" gradientUnits="userSpaceOnUse" x1="6905.4907" y1="362.6047" x2="7041.9185" y2="308.2181" gradientTransform="matrix(-1.0008 7.093422e-04 7.093422e-04 1.0008 7502.9502 602.9047)">
	<stop  offset="0" style="stop-color:#E0A28C"/>
	<stop  offset="0.5" style="stop-color:#EFB29A"/>
	<stop  offset="1" style="stop-color:#FCC9BB"/>
</linearGradient>
<path id="_Rectangle_" class="st26" d="M507.7,912.3l58.8,2.3l-2.3,58.5c-0.3,8.8-7.7,15.6-16.5,15.3l-26.3-1
	c-9.2-0.4-16.3-8.1-16-17.3L507.7,912.3L507.7,912.3z"/>
<linearGradient id="_Path_9_1_" gradientUnits="userSpaceOnUse" x1="6775.7114" y1="590.7864" x2="7085.2622" y2="444.2196" gradientTransform="matrix(-1 0 0 1 7502.6802 604)">
	<stop  offset="0" style="stop-color:#7070CC"/>
	<stop  offset="1" style="stop-color:#9999FF"/>
</linearGradient>
<path id="_Path_9" class="st27" d="M581.5,1179.4c-9.5-38.5-16.8-82.3-7.7-121.1c3.4-14.4-4.4-28.2-23-36.7c0,0-61.9-36.7-75.1-31.9
	c-30.7,11.2-27.3,43.9-24,54.6c15.8,52.2,14.3,75.6,8,89.1c-3.9,8.2-2.6,17.9,3.3,24.8c10.3,11.3,43.4,23.3,43.4,23.3
	c20.4,9.2,44.2,20.2,44.2,20.2l1.5,0.8c13.2,6.1,34.5-2.6,31.1-16.7L581.5,1179.4z"/>
<linearGradient id="SVGID_14_" gradientUnits="userSpaceOnUse" x1="4073.321" y1="2311.4724" x2="4293.5459" y2="2311.4724" gradientTransform="matrix(0.4029 0.9152 -0.9152 0.4029 1025.3137 -3626.2085)">
	<stop  offset="0" style="stop-color:#FFD3B6"/>
	<stop  offset="0.5" style="stop-color:#F0BE99"/>
	<stop  offset="1" style="stop-color:#DDA885"/>
</linearGradient>
<path class="st28" d="M655.4,1226.3c6.4,0.2,12.4-3.2,15.4-8.8c7.4-13.2,2.1-24.8-15.8-35.1l-0.6-0.4c-2.1-1.1-4.3-2-6.5-2.6
	s-4.5-0.9-6.8-0.9h-1.9l-44.8-32.2l-17.2-98.4c-1.7-10.5-11.7-17.7-22.2-16s-17.7,11.7-16,22.2l19.4,104.1
	c0.9,5.6,4.3,10.4,9.3,13.2l58.1,38.2c3.2,4.9,7.6,9,12.7,11.8c2.8,1.5,5.7,2.7,8.8,3.5C649.9,1225.7,652.6,1226.2,655.4,1226.3z"/>
<linearGradient id="SVGID_15_" gradientUnits="userSpaceOnUse" x1="6948.1694" y1="490.1544" x2="7010.0625" y2="430.8516" gradientTransform="matrix(-1 0 0 1 7536.6802 604)">
	<stop  offset="0" style="stop-color:#7070CC"/>
	<stop  offset="1" style="stop-color:#9999FF"/>
</linearGradient>
<path class="st29" d="M546.3,1095.2c10.9,2.6,31.5,0,38.4-6.1c2-1.8,1.8-3.2,1.8-3.6l-4.8-35.1c-1.3-9.5-8.3-17.2-17.6-19.5
	c-12.5-3-25,4.7-28,17.1c-0.7,2.8-0.8,5.7-0.4,8.6l4.8,35.1C540.5,1093.1,542.8,1094.4,546.3,1095.2L546.3,1095.2z"/>
<path class="st30" d="M552.2,958.8c-5-1.2-7.9-5.8-6.6-10.8c1.2-5,5.8-7.9,10.8-6.6c1.2,0.4,2.1,0.8,2.9,1.2
	c3.3-10.4,10.4-34.4,7.1-46.5c-4.6-16.2-19.9-27-36.5-26.6c-32,2.1-58.1,25.7-63.1,57.3c-8.7,53.5,10.4,134.5,2.9,168.1
	c-0.4,1.7,0.4,3.7,2.1,5c8.7,5.8,18.3,10.4,28.2,13.7c20.3,6.6,53.5,10.8,54.8,9.1C555.9,1120.3,535.6,1007,552.2,958.8z"/>
<g>
	<path class="st31" d="M228.1,662c-50,50-131.1,50-181.1,0c0-72.9,0-145.8,0-218.7c60.4,0,120.7,0,181.1,0
		C228.1,516.2,228.1,589.1,228.1,662z"/>
</g>
<g>
	<path class="st31" d="M588.1,662c-50,50-131.1,50-181.1,0c0-72.9,0-145.8,0-218.7c60.4,0,120.7,0,181.1,0
		C588.1,516.2,588.1,589.1,588.1,662z"/>
</g>
<g>
	<path class="st31" d="M948.1,662c-50,50-131.1,50-181.1,0c0-72.9,0-145.8,0-218.7c60.4,0,120.7,0,181.1,0
		C948.1,516.2,948.1,589.1,948.1,662z"/>
</g>
<g>
	<path class="st31" d="M1308.1,662c-50,50-131.1,50-181.1,0c0-72.9,0-145.8,0-218.7c60.4,0,120.7,0,181.1,0
		C1308.1,516.2,1308.1,589.1,1308.1,662z"/>
</g>
<g>
	<path class="st31" d="M1668.1,662c-50,50-131.1,50-181.1,0c0-72.9,0-145.8,0-218.7c60.4,0,120.7,0,181.1,0
		C1668.1,516.2,1668.1,589.1,1668.1,662z"/>
</g>
<g>
	<path class="st32" d="M408.1,662c-50,50-131.1,50-181.1,0c0-72.9,0-145.8,0-218.7c60.4,0,120.7,0,181.1,0
		C408.1,516.2,408.1,589.1,408.1,662z"/>
	<path class="st33" d="M408.1,662c-50,50-131.1,50-181.1,0c0-72.9,0-145.8,0-218.7c60.4,0,120.7,0,181.1,0
		C408.1,516.2,408.1,589.1,408.1,662z"/>
</g>
<g>
	<path class="st32" d="M768.1,662c-50,50-131.1,50-181.1,0c0-72.9,0-145.8,0-218.7c60.4,0,120.7,0,181.1,0
		C768.1,516.2,768.1,589.1,768.1,662z"/>
	<path class="st33" d="M768.1,662c-50,50-131.1,50-181.1,0c0-72.9,0-145.8,0-218.7c60.4,0,120.7,0,181.1,0
		C768.1,516.2,768.1,589.1,768.1,662z"/>
</g>
<g>
	<path class="st32" d="M1128.1,662c-50,50-131.1,50-181.1,0c0-72.9,0-145.8,0-218.7c60.4,0,120.7,0,181.1,0
		C1128.1,516.2,1128.1,589.1,1128.1,662z"/>
	<path class="st33" d="M1128.1,662c-50,50-131.1,50-181.1,0c0-72.9,0-145.8,0-218.7c60.4,0,120.7,0,181.1,0
		C1128.1,516.2,1128.1,589.1,1128.1,662z"/>
</g>
<g>
	<path class="st32" d="M1488.1,662c-50,50-131.1,50-181.1,0c0-72.9,0-145.8,0-218.7c60.4,0,120.7,0,181.1,0
		C1488.1,516.2,1488.1,589.1,1488.1,662z"/>
	<path class="st33" d="M1488.1,662c-50,50-131.1,50-181.1,0c0-72.9,0-145.8,0-218.7c60.4,0,120.7,0,181.1,0
		C1488.1,516.2,1488.1,589.1,1488.1,662z"/>
</g>
<g>
	<path class="st32" d="M1848.1,662c-50,50-131.1,50-181.1,0c0-72.9,0-145.8,0-218.7c60.4,0,120.7,0,181.1,0
		C1848.1,516.2,1848.1,589.1,1848.1,662z"/>
	<path class="st33" d="M1848.1,662c-50,50-131.1,50-181.1,0c0-72.9,0-145.8,0-218.7c60.4,0,120.7,0,181.1,0
		C1848.1,516.2,1848.1,589.1,1848.1,662z"/>
</g>
</svg>
